<svg width="10" height="13" viewBox="0 0 10 13" fill="none" xmlns="http://www.w3.org/2000/svg">
<path d="M9.69032 3.1871L6.81935 0.309677C6.6126 0.111852 6.33776 0.000993126 6.05161 0H1.12903C0.83342 0.00160338 0.550086 0.11843 0.339254 0.325647C0.128422 0.532865 0.00671422 0.814137 0 1.10968V11.4323C0.00169361 11.7312 0.121189 12.0174 0.332557 12.2287C0.543926 12.4401 0.830117 12.5596 1.12903 12.5613H8.87097C9.16988 12.5596 9.45607 12.4401 9.66744 12.2287C9.87881 12.0174 9.99831 11.7312 10 11.4323V3.95484C9.99901 3.66869 9.88815 3.39385 9.69032 3.1871ZM8.34839 3.1871H7.19355C7.08233 3.1871 6.97566 3.14291 6.89702 3.06427C6.81838 2.98563 6.77419 2.87896 6.77419 2.76774V1.63226L8.34839 3.1871ZM8.87097 11.5742H1.12903C1.08941 11.5745 1.05106 11.5602 1.02131 11.534C0.991566 11.5078 0.972496 11.4716 0.967742 11.4323V1.10968C0.967742 1.0669 0.984735 1.02588 1.01498 0.995628C1.04523 0.96538 1.08626 0.948387 1.12903 0.948387H5.80645V2.7871C5.80645 2.96925 5.84233 3.14963 5.91204 3.31792C5.98175 3.48621 6.08392 3.63912 6.21272 3.76792C6.47285 4.02805 6.82567 4.17419 7.19355 4.17419H9.03226V11.4323C9.03226 11.475 9.01526 11.5161 8.98502 11.5463C8.95477 11.5766 8.91374 11.5935 8.87097 11.5935V11.5742ZM7.41935 6.27097C7.41768 6.39878 7.36617 6.52088 7.27578 6.61127C7.1854 6.70165 7.06329 6.75317 6.93548 6.75484H3.06452C2.93619 6.75484 2.81311 6.70386 2.72237 6.61312C2.63162 6.52237 2.58065 6.3993 2.58065 6.27097C2.58065 6.14264 2.63162 6.01956 2.72237 5.92882C2.81311 5.83808 2.93619 5.7871 3.06452 5.7871H6.93548C7.06329 5.78877 7.1854 5.84028 7.27578 5.93067C7.36617 6.02105 7.41768 6.14316 7.41935 6.27097ZM7.41935 8.85161C7.41768 8.97942 7.36617 9.10153 7.27578 9.19191C7.1854 9.2823 7.06329 9.33381 6.93548 9.33548H3.06452C2.93619 9.33548 2.81311 9.2845 2.72237 9.19376C2.63162 9.10302 2.58065 8.97994 2.58065 8.85161C2.58065 8.72328 2.63162 8.60021 2.72237 8.50946C2.81311 8.41872 2.93619 8.36774 3.06452 8.36774H6.93548C7.06329 8.36941 7.1854 8.42093 7.27578 8.51131C7.36617 8.6017 7.41768 8.7238 7.41935 8.85161Z" fill="#BBB2CE"/>
</svg>
