<svg width="12" height="13" viewBox="0 0 12 13" fill="none" xmlns="http://www.w3.org/2000/svg">
<path d="M10.7143 3.07145H9.85714V2.2143C9.85714 1.87331 9.72168 1.54628 9.48057 1.30517C9.23945 1.06405 8.91242 0.928589 8.57143 0.928589H1.28571C0.944722 0.928589 0.617695 1.06405 0.376577 1.30517C0.135459 1.54628 0 1.87331 0 2.2143V9.50002C0.000422349 9.58463 0.0258805 9.66722 0.0731662 9.73739C0.120452 9.80755 0.187449 9.86215 0.265714 9.8943C0.316577 9.91829 0.372353 9.93004 0.428571 9.92859C0.484974 9.92892 0.540887 9.9181 0.593103 9.89678C0.645319 9.87545 0.692811 9.84402 0.732857 9.8043L2.14286 8.39002V9.07145C2.14286 9.41244 2.27832 9.73947 2.51943 9.98058C2.76055 10.2217 3.08758 10.3572 3.42857 10.3572H9.68143L11.2671 11.9472C11.3072 11.9869 11.3547 12.0183 11.4069 12.0396C11.4591 12.061 11.515 12.0718 11.5714 12.0714C11.6276 12.0729 11.6834 12.0612 11.7343 12.0372C11.8126 12.005 11.8795 11.9504 11.9268 11.8802C11.9741 11.8101 11.9996 11.7275 12 11.6429V4.35716C12 4.01617 11.8645 3.68914 11.6234 3.44802C11.3823 3.2069 11.0553 3.07145 10.7143 3.07145ZM0.857143 8.46716V2.2143C0.857143 2.10064 0.902296 1.99163 0.982669 1.91126C1.06304 1.83088 1.17205 1.78573 1.28571 1.78573H8.57143C8.68509 1.78573 8.7941 1.83088 8.87447 1.91126C8.95485 1.99163 9 2.10064 9 2.2143V6.92859C9 7.04225 8.95485 7.15126 8.87447 7.23164C8.7941 7.31201 8.68509 7.35716 8.57143 7.35716H2.14286C2.08645 7.35683 2.03054 7.36764 1.97833 7.38897C1.92611 7.4103 1.87862 7.44173 1.83857 7.48145L0.857143 8.46716ZM11.1429 10.61L10.1614 9.6243C10.1214 9.58458 10.0739 9.55316 10.0217 9.53183C9.96946 9.5105 9.91355 9.49969 9.85714 9.50002H3.42857C3.31491 9.50002 3.2059 9.45486 3.12553 9.37449C3.04515 9.29412 3 9.18511 3 9.07145V8.2143H8.57143C8.91242 8.2143 9.23945 8.07884 9.48057 7.83773C9.72168 7.59661 9.85714 7.26958 9.85714 6.92859V3.92859H10.7143C10.828 3.92859 10.937 3.97374 11.0173 4.05411C11.0977 4.13449 11.1429 4.2435 11.1429 4.35716V10.61Z" fill="#BBB2CE"/>
</svg>
