<svg width="20" height="16" viewBox="0 0 20 16" fill="none" xmlns="http://www.w3.org/2000/svg">
<path fill-rule="evenodd" clip-rule="evenodd" d="M2.37167 3.26416C2.39667 3.01643 2.3025 2.77206 2.11917 2.60578L0.2525 0.338425V0H6.05083L10.5325 9.905L14.4725 0H20V0.338425L18.4033 1.88107C18.2658 1.98688 18.1975 2.16071 18.2258 2.33286V13.668C18.1975 13.8393 18.2658 14.0131 18.4033 14.1189L19.9625 15.6616V16H12.1192V15.6616L13.735 14.0811C13.8933 13.9216 13.8933 13.8746 13.8933 13.6302V4.46838L9.4025 15.9631H8.79583L3.56667 4.46838V12.1724C3.52333 12.4957 3.63 12.8223 3.85583 13.0558L5.95667 15.6238V15.9631H0V15.6238L2.10083 13.0558C2.32583 12.8215 2.42583 12.4932 2.37167 12.1724V3.26416Z" fill="#BBB2CE"/>
</svg>
