<svg xmlns="http://www.w3.org/2000/svg" viewBox="0 0 240 240"><defs><linearGradient id="a" x1="46" x2="29" y1="11" y2="52" gradientUnits="userSpaceOnUse"><stop stop-color="#BBB2CE" offset="0"/><stop stop-color="#BBB2CE" offset="1"/></linearGradient></defs><g transform="scale(3.47)"><circle cy="34.6" cx="34.6" r="34.6" fill="url(#a)"/><path d="M47.8 20.5s3.6-1.4 3.3 2c-.1 1.4-1 6.3-1.7 11.6L47 49.8s-.2 2.3-2 2.7c-1.8.4-4.5-1.4-5-1.8-.4-.3-7.5-4.8-10-7-.7-.6-1.5-1.8.1-3.2l10.5-10c1.2-1.2 2.4-4-2.6-.6l-14 9.5s-1.6 1-4.6.1l-6.5-2s-2.4-1.5 1.7-3c10-4.7 22.3-9.5 33.2-14z" fill="#fff"/></g></svg>