<svg width="21" height="16" viewBox="0 0 21 16" fill="none" xmlns="http://www.w3.org/2000/svg">
<path d="M6.60408 16C14.5286 16 18.863 9.84379 18.863 4.50515C18.863 4.3303 18.863 4.15623 18.8504 3.98295C19.6937 3.41105 20.4215 2.70293 21 1.89176C20.2137 2.21847 19.3795 2.43273 18.5254 2.52739C19.4248 2.02249 20.0979 1.22838 20.4196 0.292845C19.5738 0.763426 18.6485 1.09507 17.6837 1.27346C17.0341 0.62577 16.1749 0.196886 15.2392 0.0531763C14.3034 -0.090533 13.3432 0.0589443 12.5072 0.478477C11.6712 0.89801 11.0059 1.56421 10.6144 2.37398C10.2229 3.18376 10.1268 4.09196 10.3412 4.95805C8.62827 4.87753 6.95251 4.46013 5.42274 3.73294C3.89297 3.00576 2.54338 1.98505 1.4616 0.737075C0.910637 1.62645 0.741888 2.67929 0.989712 3.68123C1.23754 4.68317 1.8833 5.55888 2.79552 6.13006C2.10986 6.111 1.43915 5.93757 0.84 5.62439C0.84 5.64093 0.84 5.65826 0.84 5.67559C0.840272 6.60833 1.18462 7.51227 1.81464 8.23409C2.44465 8.9559 3.32155 9.45116 4.2966 9.63585C3.66229 9.79806 2.99677 9.82177 2.35116 9.70517C2.62648 10.5079 3.16249 11.2099 3.88422 11.7129C4.60595 12.216 5.47732 12.4949 6.37644 12.5107C4.85078 13.6351 2.96609 14.2454 1.02564 14.2436C0.682839 14.2429 0.340371 14.2235 0 14.1853C1.97033 15.3709 4.26293 15.9998 6.60408 15.9968" fill="#BBB2CE"/>
</svg>
