<svg xmlns="http://www.w3.org/2000/svg" width="15" height="17" viewBox="0 0 15 17">
  <path fill="#6B46C1" d="M12.6036,0 L1.67232,0 C0.750503,0 0,0.746691 0,1.67194 L0,12.6451 C0,13.5703 0.750503,14.317 1.67232,14.317 L10.9231,14.317 L10.4907,12.8155 L11.5349,13.7813 L12.522,14.6903 L14.2759,16.2324 L14.2759,1.67194 C14.2759,0.746691 13.5254,0 12.6036,0 Z M9.45471,10.5998 C9.45471,10.5998 9.16104,10.2508 8.91631,9.94236 C9.98496,9.64206 10.3928,8.97653 10.3928,8.97653 C10.0584,9.19567 9.74023,9.34988 9.45471,9.45539 C9.04683,9.62583 8.65526,9.73945 8.27185,9.80438 C7.48872,9.95047 6.77085,9.90989 6.15902,9.79627 C5.69404,9.70699 5.29431,9.57713 4.95985,9.44727 C4.77222,9.37422 4.56828,9.28495 4.36434,9.17132 C4.33987,9.15509 4.31539,9.14697 4.29092,9.13074 C4.27461,9.12262 4.26645,9.1145 4.25829,9.10639 C4.11145,9.02523 4.02988,8.96841 4.02988,8.96841 C4.02988,8.96841 4.42144,9.61771 5.45746,9.92613 C5.21274,10.2345 4.9109,10.5998 4.9109,10.5998 C3.10806,10.543 2.42282,9.36611 2.42282,9.36611 C2.42282,6.75269 3.59752,4.63436 3.59752,4.63436 C4.77222,3.75781 5.88982,3.78208262 5.88982,3.78208262 L5.9714,3.87955 C4.50302,4.30159 3.82594,4.94277 3.82594,4.94277 C3.82594,4.94277 4.0054,4.84538 4.30724,4.7074 C5.1801,4.32594 5.8735,4.22043 6.15902,4.19608 C6.20797,4.18796 6.24876,4.17985 6.2977,4.17985 C6.79532,4.11492 7.3582,4.09869 7.94555,4.16362 C8.72052,4.25289 9.5526,4.48015 10.401,4.94277 C10.401,4.94277 9.75654,4.33406 8.36974,3.91201 L8.48395,3.78208262 C8.48395,3.78208262 9.60155,3.75781 10.7762,4.63436 C10.7762,4.63436 11.951,6.75269 11.951,9.36611 C11.951,9.36611 11.2576,10.543 9.45471,10.5998 Z"/>
</svg>
