<svg xmlns="http://www.w3.org/2000/svg" width="15" height="15" viewBox="0 0 15 15">
  <path fill="#6B46C1" fill-rule="evenodd" d="M7.5,0 C3.35625,0 0,3.35625 0,7.5 C0,10.8187 2.14687,13.6219 5.12812,14.6156 C5.50312,14.6813 5.64375,14.4563 5.64375,14.2594 C5.64375,14.0813 5.63438,13.4906 5.63438,12.8625 C3.75,13.2094 3.2625,12.4031 3.1125,11.9812 C3.02812,11.7656 2.6625,11.1 2.34375,10.9219 C2.08125,10.7812 1.70625,10.4344 2.33438,10.425 C2.925,10.4156 3.34688,10.9687 3.4875,11.1937 C4.1625,12.3281 5.24063,12.0094 5.67188,11.8125 C5.7375,11.325 5.93437,10.9969 6.15,10.8094 C4.48125,10.6219 2.7375,9.975 2.7375,7.10625 C2.7375,6.29062 3.02813,5.61562 3.50625,5.09062 C3.43125,4.90312 3.16875,4.13437 3.58125,3.10312 C3.58125,3.10312 4.20938,2.90625 5.64375,3.87188 C6.24375,3.70313 6.88125,3.61875 7.51875,3.61875 C8.15625,3.61875 8.79375,3.70313 9.39375,3.87188 C10.8281,2.89688 11.4563,3.10312 11.4563,3.10312 C11.8688,4.13437 11.6063,4.90312 11.5313,5.09062 C12.0094,5.61562 12.3,6.28125 12.3,7.10625 C12.3,9.98437 10.5469,10.6219 8.87813,10.8094 C9.15,11.0437 9.38438,11.4938 9.38438,12.1969 C9.38438,13.2 9.375,14.0063 9.375,14.2594 C9.375,14.4563 9.51563,14.6906 9.89063,14.6156 C12.8531,13.6219 15,10.8094 15,7.5 C15,3.35625 11.6438,0 7.5,0 Z"/>
</svg>
