<svg id="Capa_1" enable-background="new 0 0 512 512" height="512" viewBox="0 0 512 512" width="512" xmlns="http://www.w3.org/2000/svg"><path d="m497.28 388.963-41.842-358.035c-1.775-17.633-16.477-30.928-34.198-30.928h-330.479c-17.721 0-32.423 13.295-34.198 30.928l-41.843 358.036c-2.039 20.26 13.904 37.812 34.198 37.812h182.582v-7.067h167.074v7.067h64.509c20.362-.001 36.229-17.62 34.197-37.813z" fill="#6c7ed6"/><path d="m52.872 388.964 41.842-358.036c1.776-17.633 16.478-30.928 34.198-30.928h-38.151c-17.721 0-32.423 13.295-34.198 30.928l-41.843 358.036c-2.039 20.26 13.904 37.812 34.198 37.812h38.151c-20.293-.001-36.236-17.552-34.197-37.812z" fill="#4f67d2"/><path d="m461.32 382.04-39.932-339.062c-.451-4.482-4.223-7.893-8.727-7.893h-313.321c-4.504 0-8.276 3.411-8.727 7.893l-39.933 339.062c-.518 5.168 3.541 9.65 8.727 9.65h393.186c5.194 0 9.245-4.49 8.727-9.65z" fill="#60b8fe"/><path d="m96.695 382.04 39.933-339.062c.451-4.482 4.223-7.893 8.727-7.893h-46.015c-4.504 0-8.276 3.411-8.727 7.893l-39.933 339.062c-.519 5.168 3.542 9.65 8.727 9.65h46.015c-5.186 0-9.246-4.482-8.727-9.65z" fill="#23a8fe"/><g fill="#0193fa"><path d="m256 166.6c-20.891 22.282-56.218 22.308-77.134-.001-9.541 10.156-22.746 16.189-36.723 16.675-4.276.147-7.842-3.189-7.99-7.454s3.189-7.842 7.453-7.99c10.833-.376 20.619-5.199 27.556-13.579 5.049-6.102 14.346-6.116 19.409 0 15.038 18.17 42.712 18.138 57.723.001 5.063-6.117 14.36-6.104 19.411.001 15.038 18.171 42.712 18.135 57.723-.001 5.061-6.116 14.359-6.104 19.41 0 6.936 8.38 16.723 13.203 27.556 13.579 4.265.148 7.602 3.725 7.454 7.99s-3.724 7.599-7.99 7.454c-13.978-.486-27.183-6.519-36.724-16.675-20.89 22.279-56.217 22.31-77.134 0z"/><path d="m256 229.982c-20.889 22.279-56.217 22.309-77.133.001-11.598 12.375-28.266 18.433-45.241 16.285-4.233-.536-7.231-4.401-6.695-8.635.535-4.234 4.402-7.235 8.635-6.695 12.8 1.618 25.36-3.354 33.596-13.304 5.049-6.102 14.346-6.116 19.409 0 15.036 18.169 42.712 18.139 57.723.001 4.092-4.944 9.848-4.615 9.707-4.583 3.757.001 7.294 1.672 9.704 4.584 15.037 18.17 42.712 18.137 57.722-.001 5.061-6.116 14.359-6.104 19.41 0 8.235 9.95 20.792 14.919 33.596 13.304 4.23-.534 8.099 2.461 8.635 6.695.535 4.233-2.462 8.099-6.696 8.635-16.972 2.151-33.643-3.909-45.241-16.285-20.885 22.276-56.214 22.307-77.131-.002z"/><path d="m256 102.77c-20.888 22.278-56.214 22.31-77.131.002-7.443 7.96-16.929 13.319-27.625 15.572-4.176.882-8.274-1.792-9.153-5.967-.88-4.176 1.792-8.274 5.967-9.153 8.327-1.755 15.624-6.182 21.105-12.803 5.049-6.102 14.346-6.116 19.409 0 15.038 18.17 42.712 18.138 57.723.001 5.063-6.117 14.36-6.104 19.411.001 15.038 18.171 42.712 18.135 57.723-.001 5.061-6.116 14.359-6.104 19.41 0 5.48 6.621 12.778 11.048 21.105 12.802 4.176.879 6.848 4.977 5.968 9.153-.879 4.175-4.976 6.851-9.153 5.968-10.697-2.253-20.184-7.613-27.627-15.572-20.888 22.275-56.215 22.307-77.132-.003z"/></g><path d="m332.581 295.652c-35.445.673-63.49 30.366-63.49 65.816v31.253h37.592v-31.672c0-14.703 11.41-27.241 26.102-27.797 15.446-.584 28.197 11.812 28.197 27.13v31.679c7.966 1.657 13.953 8.714 13.953 17.173 0 8.458-5.987 15.515-13.953 17.173v35.826c7.966 1.657 13.953 8.714 13.953 17.173s-5.987 15.515-13.953 17.173v9.605c0 3.214 2.605 5.819 5.819 5.819h25.953c3.214 0 5.819-2.605 5.819-5.819v-145.8c.001-36.118-29.723-65.42-65.992-64.732z" fill="#dfebfa"/><path d="m358.423 391.69h-90.362v35.085h90.362c9.689 0 17.543-7.854 17.543-17.543 0-9.688-7.855-17.542-17.543-17.542z" fill="#b1dbfc"/><path d="m358.423 461.861h-90.362v35.085h90.362c9.689 0 17.543-7.854 17.543-17.543s-7.855-17.542-17.543-17.542z" fill="#b1dbfc"/><path d="m268.061 391.69h39.147v35.085h-39.147z" fill="#8bcaff"/><path d="m268.061 461.861h39.147v35.085h-39.147z" fill="#8bcaff"/><path d="m203.1 295.652c-35.444.672-63.49 30.364-63.49 65.815v30.223h37.592v-30.642c0-14.702 11.41-27.24 26.101-27.796 15.445-.585 28.197 11.81 28.197 27.129v145.8c0 3.214 2.605 5.819 5.819 5.819h25.953c3.214 0 5.819-2.605 5.819-5.819v-145.8c0-36.115-29.723-65.417-65.991-64.729z" fill="#dfebfa"/></svg>