<svg xmlns="http://www.w3.org/2000/svg" width="16" height="15" viewBox="0 0 16 15">
  <path fill="#6B46C1" d="M1.89729,3.62461 C1.91717,3.41698 1.84227,3.21175 1.69561,3.07201 L0.201681,1.16945 L0.201681,0.885254 L4.84034,0.885254 L8.42577,9.19807 L11.578,0.885254 L16,0.885254 L16,1.16945 L14.7227,2.46414 C14.6126,2.55287 14.5579,2.69872 14.5808,2.84307 L14.5808,12.3558 C14.5579,12.5002 14.6126,12.646 14.7227,12.7348 L15.9701,14.0294 L15.9701,14.3136 L9.69561,14.3136 L9.69561,14.0294 L10.9879,12.7032 C11.1148,12.569 11.1148,12.5295 11.1148,12.3243 L11.1148,4.6351 L7.52194,14.2821 L7.03641,14.2821 L2.85341,4.6351 L2.85341,11.1006 C2.81853,11.3725 2.90393,11.6461 3.08497,11.8427 L4.76564,13.9979 L4.76564,14.2821 L0,14.2821 L0,13.9979 L1.68067,11.8427 C1.86039,11.6458 1.94081,11.3703 1.89729,11.1006 L1.89729,3.62461 Z"/>
</svg>
