<svg width="740" height="294" viewBox="0 0 740 294" fill="none" xmlns="http://www.w3.org/2000/svg">
<path fill-rule="evenodd" clip-rule="evenodd" d="M31.4019 64.6837C30.9392 60.424 33.1879 59.9563 34.3701 60.2549C34.3701 60.2549 53.9258 68.5618 92.9784 69.2435C132.031 69.9252 153.522 60.5461 153.522 60.5461C154.706 60.2532 156.953 60.7319 156.469 64.9893C155.985 69.2467 155.246 81.5474 154.936 87.1656L177.412 87.2205C180.172 87.1287 185.275 88.7184 183.601 95.8119C183.261 97.255 182.761 99.7237 182.12 102.893C178.82 119.199 171.768 154.049 163.327 163.19C157.395 170.273 149.401 173.802 143.187 175.266C138.011 176.805 132.613 176.534 130.746 176.44L130.746 176.44L130.744 176.44C130.477 176.427 130.283 176.417 130.172 176.417C126.017 182.617 115.397 196.017 106.16 200.017C103.149 201.103 103.173 202.198 103.192 203.058C103.193 203.128 103.195 203.196 103.195 203.263C103.668 211.249 105.675 229.116 109.915 236.697C110.477 237.829 110.635 238.689 110.744 239.28C110.862 239.926 110.922 240.248 111.385 240.249L117.004 240.263C117.595 240.265 119.015 240.268 119.958 241.453C120.463 242.087 121.347 242.072 122.309 242.057C123.597 242.036 125.025 242.012 125.868 243.538C126.77 245.171 126.582 246.915 126.486 247.814C126.465 248.01 126.448 248.165 126.448 248.271L135.32 248.293C136.404 248.295 138.571 248.833 138.566 250.962L138.523 268.706C138.522 269.029 138.499 269.294 138.48 269.51C138.395 270.48 138.395 270.48 140.884 270.486L148.573 270.505C149.067 270.506 150.052 270.568 150.046 273.17L150.026 281.155C150.025 281.747 150.022 282.93 147.36 282.923L39.4456 282.659C36.784 282.653 36.7869 281.47 36.7883 280.878L36.8078 272.894C36.8142 270.291 37.7995 270.234 38.293 270.236L45.982 270.254C48.4715 270.261 48.4715 270.261 48.3912 269.29C48.3733 269.074 48.3515 268.809 48.3522 268.486L48.3956 250.742C48.4008 248.613 50.5708 248.086 51.6552 248.088L60.5271 248.11C60.5274 248.004 60.5114 247.849 60.4913 247.653C60.3991 246.753 60.22 245.008 61.1301 243.38C61.9802 241.858 63.4079 241.889 64.696 241.916C65.6582 241.936 66.5425 241.955 67.0499 241.324C67.9991 240.143 69.4186 240.147 70.0101 240.148L75.629 240.162C76.0923 240.163 76.1531 239.841 76.2748 239.196C76.3861 238.606 76.5484 237.746 77.1163 236.617C81.3933 229.057 83.4874 211.199 83.9998 203.216C84 203.149 84.0018 203.081 84.0037 203.011C84.0268 202.151 84.0562 201.057 81.0504 199.955C71.8334 195.911 61.279 182.459 57.1539 176.238C57.0429 176.238 56.8486 176.247 56.582 176.259L56.5804 176.259L56.5796 176.259C54.7126 176.344 49.3133 176.588 44.1446 175.024C37.9378 173.53 29.9617 169.961 24.0644 162.849C15.6683 153.668 8.78621 118.783 5.56624 102.462L5.5662 102.462C4.94031 99.2892 4.45279 96.818 4.11942 95.3734C2.48065 88.2717 7.59081 86.707 10.3508 86.8123L32.8264 86.8672C32.5444 81.2476 31.8647 68.9434 31.4019 64.6837ZM16.4047 96.6992C12.9471 96.6388 13.7682 100.681 14.3928 103.757L14.393 103.758C14.474 104.156 14.5517 104.539 14.6164 104.894C15.1794 107.989 17.7947 120.744 24.6756 141.266C31.5565 161.787 44.8571 163.281 50.6473 161.462C46.6837 152.893 38.3193 125.463 36.634 115.973C34.9486 106.483 32.8522 96.9862 30.3851 96.9432L16.4047 96.6992ZM173.13 104.978C173.809 101.914 174.7 97.8862 171.242 97.8862L157.259 97.8862C154.792 97.8861 152.53 107.345 150.679 116.804C148.829 126.263 139.987 153.543 135.874 162.042C141.632 163.961 154.957 162.7 162.195 142.302C169.432 121.903 172.27 109.196 172.887 106.111C172.958 105.757 173.042 105.375 173.13 104.978ZM113.807 136.781L93.6483 149.468L73.5768 136.642L93.5882 165.82L93.5882 165.83L93.5916 165.825L93.5947 165.83L93.5947 165.821L113.807 136.781ZM93.8455 93.8293L93.8456 93.8092L93.8397 93.8193L93.834 93.8093L93.8339 93.8292L73.4749 128.619L93.6702 141.283L93.6702 141.291L93.676 141.287L93.6818 141.291L93.6818 141.284L113.964 128.759L93.8455 93.8293Z" fill="#FFB636"/>
<path d="M155.638 61.165C155.589 66.843 128.115 71.2065 94.2739 70.9112C60.433 70.6159 32.2172 65.7592 32.2668 60.0811C32.3163 54.4031 60.6124 50.054 94.4533 50.3493C128.294 50.6446 155.688 55.487 155.638 61.165Z" fill="#FFD469"/>
<path d="M137.874 81.4056C140.898 81.4056 141.438 81.4056 146.921 79.4866C146.241 83.1348 142.665 110.784 141.438 115.124C138.158 126.719 134.453 144.638 129.65 148.101C128.738 148.759 124.716 148.101 123.219 147.137C121.722 146.172 126.909 136.232 133.214 115.124C136.778 92.3707 135.681 82.5021 137.874 81.4056Z" fill="#FFCC4E"/>
<path d="M301.481 52.2815C338.835 52.2815 369.117 83.0691 369.117 121.047V160.588C369.117 198.566 338.835 229.354 301.481 229.354C295.613 229.354 289.92 228.594 284.491 227.166L284.492 231.834C284.492 259.617 262.233 282.192 234.604 282.64L233.765 282.647V131.362L233.842 131.36L233.844 121.047C233.844 83.0691 264.126 52.2815 301.481 52.2815ZM604.373 52.2815C641.749 52.2815 672.049 83.245 672.049 121.44V161.207C672.049 199.402 641.749 230.366 604.373 230.366C566.996 230.366 536.697 199.402 536.697 161.207V121.44C536.697 83.245 566.996 52.2815 604.373 52.2815ZM452.907 49.0139C490.283 49.0139 520.583 79.9774 520.583 118.173V157.939C520.583 196.134 490.283 227.098 452.907 227.098C415.53 227.098 385.231 196.134 385.231 157.939V118.173C385.231 79.9774 415.53 49.0139 452.907 49.0139ZM739.725 0V175.448C739.725 203.688 717.099 226.635 689.015 227.091L688.162 227.098V51.6501C688.162 23.1246 711.248 0 739.725 0ZM604.373 104.151C595.029 104.151 587.454 111.892 587.454 121.44V161.207C587.454 170.756 595.029 178.496 604.373 178.496C613.717 178.496 621.292 170.756 621.292 161.207V121.44C621.292 111.892 613.717 104.151 604.373 104.151ZM301.481 103.856C292.142 103.856 284.572 111.553 284.572 121.047V160.588C284.572 170.082 292.142 177.779 301.481 177.779C310.819 177.779 318.39 170.082 318.39 160.588V121.047C318.39 111.553 310.819 103.856 301.481 103.856ZM452.907 100.883C443.563 100.883 435.988 108.624 435.988 118.173V157.939C435.988 167.488 443.563 175.229 452.907 175.229C462.251 175.229 469.826 167.488 469.826 157.939V118.173C469.826 108.624 462.251 100.883 452.907 100.883Z" fill="white"/>
<path d="M527.77 277.74H526.2C524.638 277.74 523.267 276.268 523.267 273.975V263.142H526.616C528.175 263.142 529.364 262.103 529.364 260.625C529.364 259.878 529.088 259.213 528.581 258.737C528.078 258.264 527.387 258.015 526.616 258.015H523.267V251.94C523.267 250.282 522.038 249.053 520.379 249.053C518.721 249.053 517.492 250.282 517.492 251.94V258.015H515.945C515.174 258.015 514.482 258.264 513.979 258.737C513.473 259.213 513.196 259.878 513.196 260.625C513.196 262.103 514.386 263.142 515.945 263.142H517.492V273.975C517.492 279.369 521.211 283.514 526.2 283.514H527.031C528.826 283.514 530.334 282.372 530.334 280.627C530.334 279.044 529.269 277.74 527.77 277.74Z" fill="white"/>
<path fill-rule="evenodd" clip-rule="evenodd" d="M562.594 270.326L562.594 270.322C562.546 262.484 557.031 256.906 549.314 256.906C545.431 256.906 542.092 258.287 539.723 260.674C537.354 263.062 535.987 266.423 535.987 270.326C535.987 274.206 537.354 277.556 539.723 279.937C542.093 282.318 545.431 283.699 549.314 283.699C553.174 283.699 556.501 282.318 558.864 279.936C561.227 277.555 562.594 274.206 562.594 270.326ZM549.314 262.219C551.565 262.219 553.454 263.06 554.783 264.473C556.114 265.89 556.913 267.914 556.913 270.326C556.913 272.737 556.114 274.749 554.784 276.153C553.456 277.555 551.567 278.386 549.314 278.386C547.06 278.386 545.158 277.555 543.819 276.151C542.477 274.746 541.669 272.735 541.669 270.326C541.669 265.533 544.857 262.219 549.314 262.219Z" fill="white"/>
<path fill-rule="evenodd" clip-rule="evenodd" d="M582.703 294C578.159 294 574.013 292.18 571.259 288.703C570.747 288.075 570.555 287.343 570.678 286.642C570.8 285.945 571.224 285.331 571.845 284.908L571.85 284.904C573.233 283.982 574.907 284.398 575.815 285.586C577.354 287.551 579.716 288.688 582.795 288.688C584.867 288.688 586.755 287.924 588.127 286.477C589.499 285.031 590.394 282.86 590.394 279.98V279.614C588.352 282.187 585.383 283.699 581.871 283.699C578.252 283.699 575.14 282.308 572.936 279.921C570.735 277.538 569.468 274.194 569.468 270.326C569.468 266.423 570.835 263.062 573.204 260.674C575.574 258.287 578.913 256.906 582.795 256.906C590.512 256.906 596.028 262.484 596.076 270.322L596.076 270.326L596.076 280.303C596.076 287.893 590.624 294 582.703 294ZM582.795 278.386C580.541 278.386 578.64 277.555 577.3 276.151C575.959 274.746 575.15 272.735 575.15 270.326C575.15 265.533 578.339 262.219 582.795 262.219C585.046 262.219 586.935 263.06 588.264 264.473C589.595 265.89 590.394 267.914 590.394 270.326C590.394 272.737 589.595 274.749 588.266 276.153C586.938 277.555 585.049 278.386 582.795 278.386Z" fill="white"/>
<path fill-rule="evenodd" clip-rule="evenodd" d="M625.328 276.901C624.312 276.065 622.815 276.099 621.705 276.93C620.551 277.785 618.453 278.571 616.692 278.571C612.503 278.571 609.411 276.114 608.529 272.52H625.377C626.13 272.52 626.81 272.267 627.305 271.794C627.803 271.32 628.079 270.657 628.079 269.91C628.079 266.15 626.972 262.895 624.882 260.574C622.786 258.245 619.748 256.906 615.999 256.906C612.205 256.906 608.934 258.29 606.612 260.679C604.291 263.066 602.95 266.426 602.95 270.326C602.95 274.212 604.368 277.564 606.814 279.944C609.259 282.322 612.7 283.699 616.692 283.699C619.629 283.699 623.221 282.507 625.411 280.757C626.044 280.266 626.388 279.59 626.364 278.858C626.34 278.137 625.962 277.452 625.34 276.911L625.328 276.901ZM615.999 262.034C617.939 262.034 619.464 262.687 620.572 263.774C621.555 264.738 622.238 266.073 622.567 267.669H608.579C608.974 266.072 609.752 264.742 610.858 263.78C612.114 262.688 613.834 262.034 615.999 262.034Z" fill="white"/>
<path d="M646.584 277.74H645.013C643.452 277.74 642.08 276.268 642.08 273.975V263.142H645.429C646.988 263.142 648.178 262.103 648.178 260.625C648.178 259.878 647.901 259.213 647.395 258.737C646.892 258.264 646.2 258.015 645.429 258.015H642.08V251.94C642.08 250.282 640.851 249.053 639.193 249.053C637.534 249.053 636.306 250.282 636.306 251.94V258.015H634.758C633.987 258.015 633.296 258.264 632.792 258.737C632.286 259.213 632.01 259.878 632.01 260.625C632.01 262.103 633.199 263.142 634.758 263.142H636.306V273.975C636.306 279.369 640.025 283.514 645.013 283.514H645.845C647.639 283.514 649.148 282.372 649.148 280.627C649.148 279.044 648.082 277.74 646.584 277.74Z" fill="white"/>
<path d="M669.236 256.86C666.446 256.86 663.918 257.732 661.96 259.255V249.215C661.96 248.384 661.667 247.643 661.133 247.109C660.599 246.575 659.858 246.282 659.027 246.282C658.196 246.282 657.455 246.575 656.921 247.109C656.387 247.643 656.094 248.384 656.094 249.215V280.627C656.094 281.458 656.387 282.199 656.921 282.733C657.455 283.267 658.196 283.56 659.027 283.56C659.858 283.56 660.599 283.267 661.133 282.733C661.667 282.199 661.96 281.458 661.96 280.627V267.6C661.96 264.631 664.614 262.265 668.312 262.265C670.31 262.265 671.988 262.824 673.164 263.937C674.333 265.045 675.079 266.772 675.079 269.263V280.627C675.079 282.285 676.354 283.56 678.013 283.56C679.671 283.56 680.946 282.285 680.946 280.627V269.263C680.946 265.306 679.703 262.192 677.584 260.067C675.467 257.943 672.527 256.86 669.236 256.86Z" fill="white"/>
<path fill-rule="evenodd" clip-rule="evenodd" d="M711.07 272.52H694.222C695.104 276.114 698.196 278.571 702.385 278.571C704.147 278.571 706.244 277.785 707.399 276.93C708.509 276.099 710.006 276.065 711.021 276.901L711.033 276.911C711.655 277.453 712.033 278.137 712.057 278.858C712.081 279.59 711.737 280.266 711.103 280.757C708.914 282.507 705.321 283.699 702.385 283.699C698.393 283.699 694.952 282.322 692.507 279.944C690.061 277.564 688.643 274.212 688.643 270.326C688.643 266.426 689.984 263.066 692.305 260.679C694.627 258.29 697.898 256.906 701.692 256.906C705.441 256.906 708.479 258.245 710.575 260.574C712.665 262.895 713.772 266.15 713.772 269.91C713.772 270.657 713.496 271.32 712.998 271.794C712.503 272.267 711.823 272.52 711.07 272.52ZM701.692 262.034C703.632 262.034 705.157 262.687 706.265 263.774C707.248 264.738 707.931 266.073 708.26 267.669H694.272C694.667 266.072 695.445 264.742 696.551 263.78C697.807 262.688 699.527 262.034 701.692 262.034Z" fill="white"/>
<path d="M733.894 256.814C731.141 256.814 728.59 257.82 726.684 259.488C726.612 258.837 726.385 258.27 725.958 257.843C725.427 257.312 724.679 257.091 723.823 257.091C722.978 257.091 722.236 257.331 721.706 257.861C721.176 258.391 720.936 259.133 720.936 259.978V280.627C720.936 281.491 721.174 282.237 721.709 282.765C722.243 283.291 722.987 283.514 723.823 283.514C724.688 283.514 725.434 283.277 725.961 282.741C726.487 282.207 726.711 281.464 726.711 280.627V267.138C726.711 265.254 727.687 263.824 729.373 262.97C731.083 262.105 733.539 261.832 736.407 262.391C737.085 262.546 737.782 262.536 738.382 262.24C739.003 261.933 739.432 261.362 739.628 260.58C739.763 260.038 739.712 259.5 739.473 259.01C739.238 258.527 738.839 258.123 738.329 257.803C737.318 257.169 735.799 256.814 733.894 256.814Z" fill="white"/>
</svg>
