<svg xmlns="http://www.w3.org/2000/svg" width="146" height="95" viewBox="0 0 146 95">
  <g fill="#FFF" fill-rule="evenodd">
    <path d="M19.474445,15.4839485 C30.160944,15.4839485 38.824062,24.2443933 38.824062,35.0509497 L38.824062,46.3019754 C38.824062,57.1085318 30.160944,65.8689766 19.474445,65.8689766 C17.795776,65.8689766 16.167033,65.6528114 14.613954,65.2465061 L14.614277,66.5211898 C14.614277,74.4306047 8.286796,80.8621572 0.417641,81.0300392 L0.102064,81.0334026 L0.102064,37.9859999 L0.124064,37.9859485 L0.124828,35.0509497 C0.124828,24.2443933 8.787947,15.4839485 19.474445,15.4839485 Z M106.126583,15.4839485 C116.819368,15.4839485 125.487582,24.2944599 125.487582,35.1627765 L125.487582,46.4781027 C125.487582,57.3464193 116.819368,66.1569307 106.126583,66.1569307 C95.433799,66.1569307 86.765584,57.3464193 86.765584,46.4781027 L86.765584,35.1627765 C86.765584,24.2944599 95.433799,15.4839485 106.126583,15.4839485 Z M62.794823,14.554169 C73.487608,14.554169 82.155822,23.3646804 82.155822,34.232997 L82.155822,45.5483232 C82.155822,56.4166398 73.487608,65.2271512 62.794823,65.2271512 C52.102039,65.2271512 43.433824,56.4166398 43.433824,45.5483232 L43.433824,34.232997 C43.433824,23.3646804 52.102039,14.554169 62.794823,14.554169 Z M144.848582,0.60747664 L144.848582,50.4759138 C144.848582,58.5169936 138.414655,65.0553494 130.413964,65.2238206 L130.097344,65.2271512 L130.097344,15.3587141 C130.097344,7.2118306 136.701698,0.60747664 144.848582,0.60747664 Z M106.126583,30.2430695 C103.453387,30.2430695 101.286334,32.4456974 101.286334,35.1627765 L101.286334,46.4781027 C101.286334,49.1951818 103.453387,51.3978097 106.126583,51.3978097 C108.799779,51.3978097 110.966833,49.1951818 110.966833,46.4781027 L110.966833,35.1627765 C110.966833,32.4456974 108.799779,30.2430695 106.126583,30.2430695 Z M19.474445,30.1591994 C16.802821,30.1591994 14.637041,32.3493106 14.637041,35.0509497 L14.637041,46.3019754 C14.637041,49.0036145 16.802821,51.1937257 19.474445,51.1937257 C22.14607,51.1937257 24.31185,49.0036145 24.31185,46.3019754 L24.31185,35.0509497 C24.31185,32.3493106 22.14607,30.1591994 19.474445,30.1591994 Z M62.794823,29.31329 C60.121627,29.31329 57.954574,31.5159179 57.954574,34.232997 L57.954574,45.5483232 C57.954574,48.2654023 60.121627,50.4680302 62.794823,50.4680302 C65.468019,50.4680302 67.635073,48.2654023 67.635073,45.5483232 L67.635073,34.232997 C67.635073,31.5159179 65.468019,29.31329 62.794823,29.31329 Z" transform="translate(.5)"/>
    <path d="M38.092537,89 C35.071642,89 33.397015,87.4394904 33.397015,84.0955414 L33.397015,76.5159236 L32.641791,76.5159236 C31.525373,76.5159236 31,75.9426752 31,74.955414 L31,74.5732484 C31,73.6496815 31.492537,73.044586 32.608955,73.044586 L33.397015,73.044586 L33.397015,71.0700637 C33.397015,69.6369427 34.119403,69 35.367164,69 L35.826866,69 C37.074627,69 37.829851,69.5414013 37.829851,71.0700637 L37.829851,73.044586 L40.19403,73.044586 C41.277612,73.044586 41.835821,73.5541401 41.835821,74.5414013 L41.835821,74.9235669 C41.835821,75.9745223 41.244776,76.5159236 40.19403,76.5159236 L37.764179,76.5159236 L37.764179,83.1719745 C37.764179,84.7961783 38.256716,85.3694268 39.241791,85.3694268 C39.997015,85.3694268 40.653731,84.9872611 41.047761,84.4458599 C41.21194,84.4458599 42,85.0191083 42,86.2292994 C42,86.8980892 41.770149,87.5031847 41.179104,88.0127389 C40.522388,88.6178344 39.504478,89 38.092537,89 Z M43,80.9843444 C43,76.1311155 45.980973,73 50.547569,73 C55.019027,73 58,76.1311155 58,81.0469667 C58,85.8688845 55.019027,89 50.484144,89 C45.917548,89 43,85.8688845 43,80.9843444 Z M54,80.5306122 C54,77.5612245 52.638889,76 50.532407,76 C48.393519,76 47,77.5306122 47,80.5 C47,83.4387755 48.393519,85 50.532407,85 C52.606481,85 54,83.4387755 54,80.5306122 Z M66.099384,95 C61.281945,95 59,93.5464848 59,91.0105646 C59,89.0622357 60.774846,87.6396464 63.500502,87.0520551 C63.056791,86.7427966 62.739854,86.2479829 62.739854,85.5985399 C62.739854,84.8563194 63.246953,84.1759506 63.944214,83.866692 C61.345332,83.1863232 59.855729,81.299846 59.855729,78.8257776 C59.855729,75.516711 62.581386,73.166346 66.289546,73.166346 C67.335437,73.166346 68.317941,73.382827 69.17367,73.7848631 L69.839238,72.5787548 C70.37803,71.4035723 71.075291,70.9706103 71.899327,71.0015361 C73.420623,71.032462 74.08619,72.7643099 73.991109,72.9189392 L71.550696,75.3930076 C72.374732,76.3207833 72.850137,77.4650399 72.850137,78.7948517 C72.850137,81.8874373 70.473111,84.0522472 66.891726,84.1450247 L66.321239,84.1450247 C66.194465,84.299654 66.194465,84.5470608 66.384627,84.732616 C66.606482,85.3511331 67.937617,85.4748365 69.870931,86.0624278 C71.804246,86.6809449 73.832641,87.7942757 73.832641,90.2374183 C73.832641,93.0516711 71.138678,95 66.099384,95 Z M66.515723,82 C68.025157,82 69,80.9468085 69,78.9680851 C69,77.0212766 68.025157,76 66.484277,76 C65.006289,76 64,77.0212766 64,78.9680851 C64,80.9468085 65.006289,82 66.515723,82 Z M66.41784,93 C68.685446,93 70,92.3230769 70,91.0923077 C70,90.2 69.079812,89.7076923 67.798122,89.3384615 C67.370892,89.2153846 66.910798,89.0923077 66.450704,89 C64.478873,89.2769231 63,90.0769231 63,91.2461538 C63,92.3538462 64.183099,93 66.41784,93 Z M74,81.1091618 C74,76.2436647 76.881432,73 81.17226,73 C85.431767,73 88,75.9317739 88,80.5165692 L88,80.797271 C88,81.5769981 87.718121,82.0136452 86.872483,82.0136452 L77.914989,82.0136452 C77.946309,82.1695906 77.946309,82.3879142 77.977629,82.5438596 C78.259508,84.6023392 79.668904,85.7251462 81.548098,85.7251462 C83.364653,85.7251462 84.42953,84.8518519 85.024609,83.5730994 C85.369128,83.5419103 87.342282,83.7602339 87.342282,85.4444444 C87.342282,86.2553606 86.903803,87.0974659 85.964206,87.7836257 C84.993289,88.4697856 83.458613,89 81.391499,89 C76.944072,89 74,86.037037 74,81.1091618 Z M84,80 C83.937824,77.5384615 82.974093,76 81.139896,76 C79.367876,76 78.186528,77.5726496 78,80 L84,80 Z M96.092537,89 C93.071642,89 91.397015,87.4394904 91.397015,84.0955414 L91.397015,76.5159236 L90.641791,76.5159236 C89.525373,76.5159236 89,75.9426752 89,74.955414 L89,74.5732484 C89,73.6496815 89.492537,73.044586 90.608955,73.044586 L91.397015,73.044586 L91.397015,71.0700637 C91.397015,69.6369427 92.119403,69 93.367164,69 L93.826866,69 C95.074627,69 95.829851,69.5414013 95.829851,71.0700637 L95.829851,73.044586 L98.19403,73.044586 C99.277612,73.044586 99.835821,73.5541401 99.835821,74.5414013 L99.835821,74.9235669 C99.835821,75.9745223 99.244776,76.5159236 98.19403,76.5159236 L95.764179,76.5159236 L95.764179,83.1719745 C95.764179,84.7961783 96.256716,85.3694268 97.241791,85.3694268 C97.997015,85.3694268 98.653731,84.9872611 99.047761,84.4458599 C99.21194,84.4458599 100,85.0191083 100,86.2292994 C100,86.8980892 99.770149,87.5031847 99.179104,88.0127389 C98.522388,88.6178344 97.504478,89 96.092537,89 Z M110.83871,73.1146132 C114.548387,73.1146132 116,75.8567335 116,79.260745 L116,86.9512894 C116,88.4326648 115.258065,89 114.096774,89 L113.580645,89 C112.354839,89 111.612903,88.4641834 111.612903,86.9512894 L111.612903,79.6074499 C111.612903,77.8424069 110.806452,76.7077364 109.225806,76.7077364 C107.645161,76.7077364 106.516129,77.7163324 106.354839,79.4183381 L106.354839,86.9512894 C106.354839,88.4326648 105.645161,89 104.451613,89 L103.967742,89 C102.741935,89 102,88.4641834 102,86.9512894 L102,67.5358166 C102,67.3782235 102.774194,67 103.677419,67 C105,67 106.354839,67.7249284 106.354839,70.3724928 L106.354839,75.8882521 C107.193548,74.2492837 108.645161,73.1146132 110.83871,73.1146132 Z M118,81.1091618 C118,76.2436647 120.881432,73 125.17226,73 C129.431767,73 132,75.9317739 132,80.5165692 L132,80.797271 C132,81.5769981 131.718121,82.0136452 130.872483,82.0136452 L121.914989,82.0136452 C121.946309,82.1695906 121.946309,82.3879142 121.977629,82.5438596 C122.259508,84.6023392 123.668904,85.7251462 125.548098,85.7251462 C127.364653,85.7251462 128.42953,84.8518519 129.024609,83.5730994 C129.369128,83.5419103 131.342282,83.7602339 131.342282,85.4444444 C131.342282,86.2553606 130.903803,87.0974659 129.964206,87.7836257 C128.993289,88.4697856 127.458613,89 125.391499,89 C120.944072,89 118,86.037037 118,81.1091618 Z M128,80 C127.937824,77.5384615 126.974093,76 125.139896,76 C123.367876,76 122.186528,77.5726496 122,80 L128,80 Z M142.373418,73 C144.018987,73 145,74.0793651 145,75.6666667 C145,77.6031746 143.639241,78.2063492 143.575949,78.1746032 C143.196203,77.7301587 142.626582,77.3809524 141.835443,77.3809524 C140.063291,77.3809524 139.272152,79.031746 139.272152,82.1746032 L139.272152,86.9365079 C139.272152,88.4285714 138.575949,89 137.373418,89 L136.93038,89 C135.727848,89 135,88.4603175 135,86.9365079 L135,73.6666667 C135,73.5079365 135.696203,73.1904762 136.550633,73.1904762 C137.563291,73.1904762 138.35443,73.6349206 138.702532,74.8412698 C138.829114,75.2857143 138.924051,75.7936508 138.955696,76.3333333 C139.43038,74.2698413 140.632911,73 142.373418,73 Z"/>
  </g>
</svg>
