<svg width="489" height="284" viewBox="0 0 489 284" fill="none" xmlns="http://www.w3.org/2000/svg">
<g clip-path="url(#clip0)">
<path d="M65.4128 50.5033C101.497 50.5033 130.749 80.2436 130.749 116.93V155.126C130.749 191.812 101.497 221.552 65.4128 221.552C59.7447 221.552 54.2453 220.819 49.0013 219.439L49.0019 223.948C49.0019 250.786 27.4996 272.593 0.810361 273.027L0 273.033V126.894L0.0748859 126.892L0.0768772 116.93C0.0768772 80.2436 29.3288 50.5033 65.4128 50.5033ZM358.002 50.5033C394.108 50.5033 423.377 80.4136 423.377 117.31V155.724C423.377 192.62 394.108 222.53 358.002 222.53C321.897 222.53 292.628 192.62 292.628 155.724V117.31C292.628 80.4136 321.897 50.5033 358.002 50.5033ZM211.688 47.3468C247.794 47.3468 277.063 77.2571 277.063 114.153V152.567C277.063 189.463 247.794 219.374 211.688 219.374C175.583 219.374 146.314 189.463 146.314 152.567V114.153C146.314 77.2571 175.583 47.3468 211.688 47.3468ZM488.751 0V169.48C488.751 196.76 466.895 218.926 439.766 219.367L438.942 219.374V49.8933C438.942 22.338 461.242 0 488.751 0ZM358.002 100.608C348.976 100.608 341.659 108.086 341.659 117.31V155.724C341.659 164.948 348.976 172.425 358.002 172.425C367.029 172.425 374.346 164.948 374.346 155.724V117.31C374.346 108.086 367.029 100.608 358.002 100.608ZM65.4128 100.323C56.3918 100.323 49.0788 107.758 49.0788 116.93V155.126C49.0788 164.297 56.3918 171.732 65.4128 171.732C74.4338 171.732 81.7468 164.297 81.7468 155.126V116.93C81.7468 107.758 74.4338 100.323 65.4128 100.323ZM211.688 97.4517C202.662 97.4517 195.345 104.929 195.345 114.153V152.567C195.345 161.791 202.662 169.269 211.688 169.269C220.715 169.269 228.032 161.791 228.032 152.567V114.153C228.032 104.929 220.715 97.4517 211.688 97.4517Z" fill="white"/>
<path d="M305.611 265.029H304.252C302.901 265.029 301.714 263.764 301.714 261.794V252.487H304.612C305.961 252.487 306.99 251.594 306.99 250.324C306.99 249.682 306.751 249.111 306.313 248.702C305.878 248.296 305.279 248.081 304.612 248.081H301.714V242.862C301.714 241.437 300.651 240.381 299.216 240.381C297.781 240.381 296.717 241.437 296.717 242.862V248.081H295.378C294.711 248.081 294.113 248.296 293.677 248.702C293.239 249.111 293 249.682 293 250.324C293 251.594 294.029 252.487 295.378 252.487H296.717V261.794C296.717 266.429 299.936 269.99 304.252 269.99H304.972C306.525 269.99 307.83 269.01 307.83 267.51C307.83 266.15 306.908 265.029 305.611 265.029Z" fill="white"/>
<path fill-rule="evenodd" clip-rule="evenodd" d="M335.745 258.659L335.745 258.656C335.704 251.921 330.931 247.129 324.253 247.129C320.894 247.129 318.004 248.315 315.954 250.366C313.904 252.417 312.721 255.306 312.721 258.659C312.721 261.993 313.905 264.871 315.954 266.917C318.005 268.963 320.894 270.149 324.253 270.149C327.593 270.149 330.473 268.962 332.517 266.917C334.562 264.871 335.745 261.993 335.745 258.659ZM324.253 251.693C326.201 251.693 327.836 252.416 328.986 253.63C330.137 254.847 330.829 256.587 330.829 258.659C330.829 260.731 330.138 262.459 328.987 263.666C327.838 264.871 326.203 265.585 324.253 265.585C322.303 265.585 320.657 264.87 319.498 263.664C318.337 262.457 317.638 260.729 317.638 258.659C317.638 254.541 320.397 251.693 324.253 251.693Z" fill="white"/>
<path fill-rule="evenodd" clip-rule="evenodd" d="M353.146 279C349.213 279 345.626 277.436 343.243 274.449C342.8 273.91 342.633 273.281 342.74 272.678C342.846 272.079 343.213 271.552 343.75 271.188L343.755 271.185C344.952 270.393 346.4 270.75 347.185 271.771C348.517 273.459 350.561 274.436 353.225 274.436C355.018 274.436 356.652 273.779 357.84 272.536C359.026 271.294 359.801 269.429 359.801 266.954V266.639C358.034 268.85 355.465 270.149 352.426 270.149C349.294 270.149 346.601 268.954 344.694 266.904C342.79 264.856 341.693 261.982 341.693 258.659C341.693 255.306 342.876 252.417 344.926 250.366C346.977 248.315 349.866 247.129 353.225 247.129C359.903 247.129 364.676 251.921 364.718 258.656L364.718 258.659L364.718 267.232C364.718 273.753 360 279 353.146 279ZM353.225 265.585C351.275 265.585 349.63 264.87 348.47 263.664C347.31 262.457 346.61 260.729 346.61 258.659C346.61 254.541 349.369 251.693 353.225 251.693C355.173 251.693 356.808 252.416 357.958 253.63C359.11 254.847 359.801 256.587 359.801 258.659C359.801 260.731 359.11 262.459 357.959 263.666C356.81 264.871 355.175 265.585 353.225 265.585Z" fill="white"/>
<path fill-rule="evenodd" clip-rule="evenodd" d="M390.03 264.309C389.151 263.59 387.856 263.619 386.895 264.334C385.896 265.068 384.081 265.743 382.557 265.743C378.933 265.743 376.257 263.632 375.494 260.544H390.072C390.724 260.544 391.313 260.327 391.741 259.921C392.172 259.513 392.411 258.943 392.411 258.302C392.411 255.071 391.452 252.275 389.644 250.28C387.83 248.279 385.201 247.129 381.958 247.129C378.675 247.129 375.844 248.317 373.835 250.37C371.827 252.421 370.666 255.308 370.666 258.659C370.666 261.998 371.893 264.878 374.01 266.923C376.126 268.966 379.103 270.149 382.557 270.149C385.098 270.149 388.207 269.125 390.102 267.622C390.649 267.2 390.947 266.619 390.926 265.99C390.906 265.37 390.579 264.782 390.041 264.317L390.03 264.309ZM381.958 251.534C383.636 251.534 384.956 252.096 385.915 253.03C386.765 253.858 387.357 255.005 387.641 256.377H375.537C375.879 255.004 376.552 253.862 377.509 253.035C378.596 252.096 380.084 251.534 381.958 251.534Z" fill="white"/>
<path d="M408.423 265.029H407.064C405.713 265.029 404.526 263.764 404.526 261.794V252.487H407.424C408.773 252.487 409.802 251.594 409.802 250.324C409.802 249.682 409.563 249.111 409.125 248.702C408.69 248.296 408.091 248.081 407.424 248.081H404.526V242.862C404.526 241.437 403.463 240.381 402.028 240.381C400.593 240.381 399.53 241.437 399.53 242.862V248.081H398.19C397.523 248.081 396.925 248.296 396.489 248.702C396.051 249.111 395.812 249.682 395.812 250.324C395.812 251.594 396.841 252.487 398.19 252.487H399.53V261.794C399.53 266.429 402.748 269.99 407.064 269.99H407.784C409.337 269.99 410.642 269.01 410.642 267.51C410.642 266.15 409.72 265.029 408.423 265.029Z" fill="white"/>
<path d="M428.025 247.089C425.611 247.089 423.423 247.838 421.729 249.146V240.52C421.729 239.806 421.475 239.17 421.013 238.711C420.551 238.252 419.91 238 419.191 238C418.471 238 417.831 238.252 417.368 238.711C416.906 239.17 416.652 239.806 416.652 240.52V267.51C416.652 268.224 416.906 268.86 417.368 269.319C417.831 269.778 418.471 270.03 419.191 270.03C419.91 270.03 420.551 269.778 421.013 269.319C421.475 268.86 421.729 268.224 421.729 267.51V256.317C421.729 253.766 424.025 251.733 427.225 251.733C428.954 251.733 430.406 252.213 431.423 253.17C432.435 254.121 433.081 255.605 433.081 257.746V267.51C433.081 268.935 434.184 270.03 435.619 270.03C437.055 270.03 438.158 268.935 438.158 267.51V257.746C438.158 254.346 437.082 251.671 435.249 249.845C433.416 248.02 430.873 247.089 428.025 247.089Z" fill="white"/>
<path fill-rule="evenodd" clip-rule="evenodd" d="M464.224 260.544H449.646C450.409 263.632 453.085 265.743 456.71 265.743C458.234 265.743 460.049 265.068 461.048 264.333C462.008 263.619 463.304 263.59 464.182 264.309L464.192 264.317C464.731 264.782 465.058 265.37 465.079 265.99C465.099 266.619 464.802 267.2 464.254 267.622C462.359 269.125 459.25 270.149 456.71 270.149C453.255 270.149 450.278 268.966 448.162 266.923C446.045 264.878 444.818 261.998 444.818 258.659C444.818 255.308 445.979 252.421 447.987 250.37C449.996 248.317 452.827 247.129 456.11 247.129C459.354 247.129 461.983 248.279 463.796 250.28C465.605 252.275 466.563 255.071 466.563 258.302C466.563 258.943 466.324 259.513 465.893 259.921C465.465 260.327 464.876 260.544 464.224 260.544ZM456.11 251.534C457.788 251.534 459.108 252.096 460.067 253.03C460.918 253.858 461.509 255.005 461.793 256.377H449.689C450.031 255.004 450.704 253.862 451.661 253.035C452.748 252.096 454.236 251.534 456.11 251.534Z" fill="white"/>
<path d="M483.975 247.049C481.592 247.049 479.385 247.913 477.736 249.347C477.673 248.788 477.477 248.301 477.108 247.934C476.648 247.478 476.001 247.288 475.261 247.288C474.529 247.288 473.887 247.493 473.428 247.949C472.97 248.404 472.762 249.042 472.762 249.768V267.51C472.762 268.252 472.968 268.893 473.431 269.347C473.893 269.798 474.536 269.99 475.261 269.99C476.008 269.99 476.654 269.786 477.11 269.326C477.566 268.868 477.759 268.229 477.759 267.51V255.92C477.759 254.301 478.604 253.073 480.063 252.339C481.543 251.595 483.668 251.361 486.149 251.841C486.736 251.974 487.339 251.966 487.858 251.711C488.396 251.448 488.767 250.957 488.936 250.285C489.053 249.82 489.009 249.358 488.803 248.936C488.6 248.521 488.254 248.174 487.813 247.899C486.938 247.354 485.623 247.049 483.975 247.049Z" fill="white"/>
</g>
<defs>
<clipPath id="clip0">
<rect width="489" height="284" fill="white"/>
</clipPath>
</defs>
</svg>
