<svg width="131" height="224" viewBox="0 0 131 224" fill="none" xmlns="http://www.w3.org/2000/svg">
<path d="M65.4128 0.503418C101.497 0.503418 130.749 30.2437 130.749 66.9303V105.126C130.749 141.812 101.497 171.553 65.4128 171.553C59.7447 171.553 54.2453 170.819 49.0013 169.44L49.0019 173.949C49.0019 200.786 27.4996 222.593 0.810361 223.027L0 223.033V76.8943L0.0748859 76.8926L0.0768772 66.9303C0.0768772 30.2437 29.3288 0.503418 65.4128 0.503418ZM65.4128 50.3236C56.3918 50.3236 49.0788 57.7586 49.0788 66.9303V105.126C49.0788 114.297 56.3918 121.732 65.4128 121.732C74.4338 121.732 81.7468 114.297 81.7468 105.126V66.9303C81.7468 57.7586 74.4338 50.3236 65.4128 50.3236Z" fill="white"/>
</svg>
