<svg width="103" height="41" viewBox="0 0 103 41" fill="none" xmlns="http://www.w3.org/2000/svg">
<path fill-rule="evenodd" clip-rule="evenodd" d="M4.36976 9.00115C4.30537 8.40838 4.61829 8.3433 4.7828 8.38486C4.7828 8.38486 7.5041 9.54081 12.9385 9.63567C18.3729 9.73053 21.3636 8.42537 21.3636 8.42537C21.5283 8.38462 21.8409 8.45123 21.7736 9.04367C21.7063 9.63611 21.6034 11.3478 21.5603 12.1296L24.6879 12.1373C25.072 12.1245 25.7821 12.3457 25.5492 13.3328C25.5018 13.5336 25.4323 13.8772 25.3431 14.3182C24.8839 16.5872 23.9025 21.4369 22.7279 22.7089C21.9024 23.6945 20.7901 24.1856 19.9254 24.3893C19.2051 24.6035 18.4539 24.5658 18.1941 24.5527L18.1941 24.5527C18.1569 24.5509 18.1297 24.5495 18.1142 24.5495C17.536 25.4123 16.0581 27.277 14.7728 27.8336C14.3538 27.9848 14.3571 28.137 14.3598 28.2567C14.36 28.2664 14.3602 28.276 14.3602 28.2852C14.426 29.3965 14.7053 31.8829 15.2953 32.9378C15.3736 33.0953 15.3956 33.2151 15.4107 33.2973C15.4272 33.3871 15.4354 33.432 15.4999 33.4322L16.2818 33.4341C16.3641 33.4343 16.5616 33.4348 16.6929 33.5997C16.7631 33.6879 16.8862 33.6859 17.0201 33.6837C17.1993 33.6807 17.398 33.6775 17.5153 33.8898C17.6408 34.1171 17.6147 34.3598 17.6013 34.4848C17.5983 34.5121 17.596 34.5337 17.596 34.5484L18.8305 34.5515C18.9814 34.5518 19.283 34.6266 19.2823 34.9229L19.2763 37.3921C19.2762 37.4371 19.273 37.4739 19.2703 37.504C19.2585 37.639 19.2585 37.639 19.6049 37.6398L20.6749 37.6424C20.7436 37.6426 20.8806 37.6512 20.8797 38.0133L20.877 39.1245C20.8768 39.2068 20.8764 39.3714 20.5061 39.3705L5.48909 39.3338C5.11871 39.3329 5.11911 39.1683 5.11931 39.086L5.12203 37.9748C5.12291 37.6127 5.26001 37.6048 5.3287 37.605L6.39867 37.6076C6.74509 37.6084 6.74509 37.6084 6.73392 37.4733L6.73392 37.4733L6.73392 37.4733C6.73143 37.4432 6.72839 37.4064 6.7285 37.3615L6.73454 34.8923C6.73526 34.596 7.03723 34.5226 7.18812 34.523L8.42271 34.526C8.42274 34.5113 8.42052 34.4896 8.41773 34.4624C8.40489 34.3373 8.37998 34.0944 8.50662 33.8678C8.62492 33.6561 8.82359 33.6603 9.00283 33.6641C9.13673 33.6669 9.25978 33.6695 9.33039 33.5817C9.46248 33.4174 9.66001 33.4179 9.74232 33.4181L10.5242 33.42C10.5887 33.4202 10.5972 33.3753 10.6141 33.2856C10.6296 33.2035 10.6522 33.0838 10.7312 32.9267C11.3264 31.8746 11.6178 29.3897 11.6891 28.2787C11.6891 28.2695 11.6893 28.26 11.6896 28.2503L11.6896 28.2502C11.6928 28.1305 11.6969 27.9783 11.2787 27.825C9.99605 27.2622 8.52734 25.3903 7.95331 24.5247C7.9379 24.5246 7.91096 24.5258 7.874 24.5275L7.87381 24.5275L7.87342 24.5275L7.87338 24.5275C7.61358 24.5393 6.86224 24.5733 6.14298 24.3556C5.27928 24.1477 4.16935 23.6512 3.34871 22.6615C2.18033 21.3838 1.22263 16.5294 0.774562 14.2582C0.687468 13.8167 0.619626 13.4728 0.573236 13.2718C0.345193 12.2836 1.0563 12.0658 1.44036 12.0805L4.56799 12.0881C4.52874 11.3061 4.43416 9.59391 4.36976 9.00115ZM2.28291 13.4563C1.80178 13.4479 1.91603 14.0104 2.00296 14.4384C2.01424 14.494 2.02506 14.5473 2.03406 14.5967C2.11241 15.0274 2.47635 16.8024 3.43386 19.658C4.39138 22.5137 6.24224 22.7215 7.04799 22.4685C6.49643 21.276 5.33248 17.4589 5.09794 16.1384C4.86341 14.8178 4.57168 13.4963 4.22837 13.4903L2.28291 13.4563ZM24.0922 14.6083C24.1866 14.1819 24.3106 13.6215 23.8294 13.6215L21.8837 13.6215C21.5403 13.6215 21.2256 14.9378 20.968 16.254C20.7105 17.5703 19.4801 21.3664 18.9078 22.5491C19.709 22.8162 21.5632 22.6407 22.5704 19.8022C23.5776 16.9636 23.9725 15.1953 24.0583 14.7661C24.0682 14.7168 24.0799 14.6637 24.0922 14.6084L24.0922 14.6083ZM15.8371 19.0339L13.0318 20.7994L10.2387 19.0146L13.0235 23.0751L13.0235 23.0762L13.0239 23.0757L13.0243 23.0763L13.0243 23.0751L15.8371 19.0339ZM13.0593 13.0568L13.0593 13.0542L13.0585 13.0555L13.0578 13.0542L13.0578 13.0567L10.2246 17.8981L13.035 19.6606L13.035 19.6615L13.0358 19.661L13.0365 19.6615L13.0365 19.6606L15.859 17.9176L13.0593 13.0568Z" fill="#FFB636"/>
<path d="M21.6577 8.5115C21.6508 9.30163 17.8277 9.90884 13.1185 9.86775C8.40934 9.82665 4.48295 9.15081 4.48984 8.36068C4.49674 7.57055 8.43431 6.96534 13.1435 7.00643C17.8527 7.04753 21.6646 7.72137 21.6577 8.5115Z" fill="#FFD469"/>
<path d="M19.1859 11.3281C19.6066 11.3281 19.6818 11.3281 20.4447 11.0611C20.3502 11.5687 19.8526 15.4163 19.6818 16.0202C19.2253 17.6337 18.7098 20.1273 18.0414 20.6092C17.9145 20.7007 17.3548 20.6092 17.1465 20.475C16.9382 20.3408 17.66 18.9575 18.5374 16.0202C19.0333 12.854 18.8807 11.4807 19.1859 11.3281Z" fill="#FFCC4E"/>
<path d="M41.953 7.27529C47.1511 7.27529 51.365 11.5596 51.365 16.8445V22.3468C51.365 27.6317 47.1511 31.9159 41.953 31.9159C41.1365 31.9159 40.3443 31.8102 39.5888 31.6115L39.5889 32.2611C39.5889 36.1272 36.4914 39.2687 32.6466 39.3311L32.5299 39.3321V18.2799L32.5407 18.2796L32.541 16.8445C32.541 11.5596 36.7549 7.27529 41.953 7.27529ZM84.1023 7.27529C89.3035 7.27529 93.5198 11.584 93.5198 16.8992V22.4329C93.5198 27.748 89.3035 32.0568 84.1023 32.0568C78.9011 32.0568 74.6847 27.748 74.6847 22.4329V16.8992C74.6847 11.584 78.9011 7.27529 84.1023 7.27529ZM63.0249 6.82059C68.2261 6.82059 72.4424 11.1293 72.4424 16.4445V21.9782C72.4424 27.2933 68.2261 31.6021 63.0249 31.6021C57.8237 31.6021 53.6073 27.2933 53.6073 21.9782V16.4445C53.6073 11.1293 57.8237 6.82059 63.0249 6.82059ZM102.937 0V24.4146C102.937 28.3444 99.7888 31.5376 95.8808 31.6011L95.7621 31.6021V7.18743C95.7621 3.21792 98.9746 0 102.937 0ZM84.1023 14.4932C82.802 14.4932 81.7479 15.5704 81.7479 16.8992V22.4329C81.7479 23.7617 82.802 24.8389 84.1023 24.8389C85.4026 24.8389 86.4567 23.7617 86.4567 22.4329V16.8992C86.4567 15.5704 85.4026 14.4932 84.1023 14.4932ZM41.953 14.4522C40.6535 14.4522 39.6 15.5232 39.6 16.8445V22.3468C39.6 23.668 40.6535 24.739 41.953 24.739C43.2525 24.739 44.306 23.668 44.306 22.3468V16.8445C44.306 15.5232 43.2525 14.4522 41.953 14.4522ZM63.0249 14.0385C61.7246 14.0385 60.6705 15.1157 60.6705 16.4445V21.9782C60.6705 23.307 61.7246 24.3842 63.0249 24.3842C64.3252 24.3842 65.3793 23.307 65.3793 21.9782V16.4445C65.3793 15.1157 64.3252 14.0385 63.0249 14.0385Z" fill="#4C249F"/>
<path d="M76.5819 38.179H76.3861C76.1914 38.179 76.0204 37.9968 76.0204 37.713V36.3722H76.4379C76.6323 36.3722 76.7805 36.2436 76.7805 36.0606C76.7805 35.9681 76.7461 35.8859 76.683 35.827C76.6202 35.7685 76.5341 35.7376 76.4379 35.7376H76.0204V34.9857C76.0204 34.7804 75.8673 34.6284 75.6605 34.6284C75.4538 34.6284 75.3007 34.7804 75.3007 34.9857V35.7376H75.1078C75.0116 35.7376 74.9254 35.7685 74.8627 35.827C74.7996 35.8859 74.7651 35.9681 74.7651 36.0606C74.7651 36.2436 74.9134 36.3722 75.1078 36.3722H75.3007V37.713C75.3007 38.3806 75.7643 38.8937 76.3861 38.8937H76.4897C76.7135 38.8937 76.9015 38.7524 76.9015 38.5364C76.9015 38.3405 76.7687 38.179 76.5819 38.179Z" fill="#4C249F"/>
<path fill-rule="evenodd" clip-rule="evenodd" d="M80.9228 37.2613L80.9228 37.2609C80.9169 36.2907 80.2293 35.6004 79.2673 35.6004C78.7834 35.6004 78.3671 35.7712 78.0718 36.0667C77.7765 36.3622 77.6061 36.7783 77.6061 37.2613C77.6061 37.7416 77.7766 38.1562 78.0719 38.451C78.3672 38.7457 78.7834 38.9166 79.2673 38.9166C79.7485 38.9166 80.1633 38.7456 80.4579 38.4509C80.7524 38.1562 80.9228 37.7416 80.9228 37.2613ZM79.2673 36.2579C79.548 36.2579 79.7834 36.362 79.9491 36.537C80.115 36.7123 80.2146 36.9628 80.2146 37.2613C80.2146 37.5598 80.115 37.8088 79.9493 37.9826C79.7837 38.1562 79.5483 38.259 79.2673 38.259C78.9864 38.259 78.7493 38.1561 78.5824 37.9824C78.4152 37.8085 78.3143 37.5595 78.3143 37.2613C78.3143 36.6682 78.7119 36.2579 79.2673 36.2579Z" fill="#4C249F"/>
<path fill-rule="evenodd" clip-rule="evenodd" d="M83.4295 40.1916C82.863 40.1916 82.3462 39.9663 82.0029 39.536C81.9391 39.4583 81.9151 39.3677 81.9305 39.2808C81.9458 39.1946 81.9986 39.1186 82.076 39.0662L82.0766 39.0658C82.2491 38.9517 82.4577 39.0031 82.5708 39.1502C82.7628 39.3934 83.0572 39.5341 83.441 39.5341C83.6992 39.5341 83.9346 39.4395 84.1056 39.2605C84.2766 39.0815 84.3882 38.8128 84.3882 38.4563V38.411C84.1337 38.7295 83.7635 38.9166 83.3258 38.9166C82.8746 38.9166 82.4867 38.7444 82.212 38.449C81.9376 38.1541 81.7797 37.7401 81.7797 37.2613C81.7797 36.7783 81.9501 36.3622 82.2454 36.0667C82.5408 35.7712 82.957 35.6004 83.441 35.6004C84.403 35.6004 85.0905 36.2907 85.0965 37.2609L85.0965 37.2613L85.0965 38.4963C85.0965 39.4358 84.4169 40.1916 83.4295 40.1916ZM83.441 38.259C83.16 38.259 82.923 38.1561 82.756 37.9824C82.5888 37.8085 82.488 37.5595 82.488 37.2613C82.488 36.6682 82.8855 36.2579 83.441 36.2579C83.7216 36.2579 83.9571 36.362 84.1227 36.537C84.2886 36.7123 84.3882 36.9628 84.3882 37.2613C84.3882 37.5598 84.2887 37.8088 84.1229 37.9826C83.9574 38.1562 83.7219 38.259 83.441 38.259Z" fill="#4C249F"/>
<path fill-rule="evenodd" clip-rule="evenodd" d="M88.7429 38.0752C88.6163 37.9717 88.4297 37.9759 88.2913 38.0788C88.1474 38.1846 87.886 38.2819 87.6664 38.2819C87.1443 38.2819 86.7588 37.9778 86.6489 37.5329H88.749C88.8429 37.5329 88.9276 37.5016 88.9894 37.4431C89.0514 37.3844 89.0858 37.3023 89.0858 37.2099C89.0858 36.7445 88.9478 36.3416 88.6873 36.0543C88.426 35.766 88.0473 35.6004 87.58 35.6004C87.1071 35.6004 86.6993 35.7716 86.4099 36.0673C86.1206 36.3628 85.9533 36.7787 85.9533 37.2613C85.9533 37.7424 86.1301 38.1573 86.4351 38.4518C86.7399 38.7462 87.1688 38.9166 87.6664 38.9166C88.0325 38.9166 88.4802 38.7691 88.7532 38.5525C88.8321 38.4917 88.875 38.4081 88.872 38.3174C88.8691 38.2281 88.822 38.1434 88.7444 38.0765L88.7429 38.0752ZM87.58 36.235C87.8218 36.235 88.012 36.3159 88.1501 36.4504C88.2726 36.5698 88.3578 36.735 88.3987 36.9326H86.6551C86.7043 36.7348 86.8013 36.5703 86.9392 36.4512C87.0958 36.3159 87.3101 36.235 87.58 36.235Z" fill="#4C249F"/>
<path d="M91.3926 38.179H91.1968C91.0021 38.179 90.8311 37.9968 90.8311 37.713V36.3722H91.2486C91.443 36.3722 91.5912 36.2436 91.5912 36.0606C91.5912 35.9681 91.5568 35.8859 91.4937 35.827C91.4309 35.7685 91.3447 35.7376 91.2486 35.7376H90.8311V34.9857C90.8311 34.7804 90.678 34.6284 90.4712 34.6284C90.2645 34.6284 90.1113 34.7804 90.1113 34.9857V35.7376H89.9184C89.8223 35.7376 89.7361 35.7685 89.6734 35.827C89.6103 35.8859 89.5758 35.9681 89.5758 36.0606C89.5758 36.2436 89.7241 36.3722 89.9184 36.3722H90.1113V37.713C90.1113 38.3806 90.5749 38.8937 91.1968 38.8937H91.3004C91.5241 38.8937 91.7121 38.7524 91.7121 38.5364C91.7121 38.3405 91.5794 38.179 91.3926 38.179Z" fill="#4C249F"/>
<path d="M94.2162 35.5946C93.8685 35.5946 93.5534 35.7026 93.3093 35.891V34.6484C93.3093 34.5455 93.2727 34.4538 93.2062 34.3877C93.1396 34.3216 93.0473 34.2853 92.9436 34.2853C92.84 34.2853 92.7477 34.3216 92.6811 34.3877C92.6146 34.4538 92.578 34.5455 92.578 34.6484V38.5364C92.578 38.6392 92.6146 38.7309 92.6811 38.797C92.7477 38.8631 92.84 38.8994 92.9436 38.8994C93.0473 38.8994 93.1396 38.8631 93.2062 38.797C93.2727 38.7309 93.3093 38.6392 93.3093 38.5364V36.924C93.3093 36.5564 93.64 36.2636 94.1011 36.2636C94.3501 36.2636 94.5593 36.3328 94.7059 36.4706C94.8516 36.6077 94.9447 36.8214 94.9447 37.1298V38.5364C94.9447 38.7416 95.1036 38.8994 95.3103 38.8994C95.517 38.8994 95.6759 38.7416 95.6759 38.5364V37.1298C95.6759 36.64 95.5211 36.2546 95.2569 35.9916C94.9929 35.7287 94.6266 35.5946 94.2162 35.5946Z" fill="#4C249F"/>
<path fill-rule="evenodd" clip-rule="evenodd" d="M99.431 37.5329H97.3309C97.4408 37.9778 97.8263 38.2819 98.3485 38.2819C98.5681 38.2819 98.8295 38.1846 98.9735 38.0788C99.1118 37.9759 99.2984 37.9717 99.425 38.0752L99.4264 38.0765C99.504 38.1435 99.5511 38.2281 99.5541 38.3174C99.5571 38.4081 99.5142 38.4917 99.4352 38.5525C99.1623 38.7691 98.7145 38.9166 98.3485 38.9166C97.8508 38.9166 97.4219 38.7462 97.1171 38.4518C96.8122 38.1573 96.6354 37.7424 96.6354 37.2613C96.6354 36.7787 96.8026 36.3628 97.0919 36.0673C97.3814 35.7716 97.7891 35.6004 98.2621 35.6004C98.7293 35.6004 99.1081 35.766 99.3694 36.0543C99.6298 36.3416 99.7679 36.7445 99.7679 37.2099C99.7679 37.3023 99.7335 37.3844 99.6714 37.4431C99.6097 37.5016 99.5249 37.5329 99.431 37.5329ZM98.2621 36.235C98.5038 36.235 98.694 36.3159 98.8321 36.4504C98.9547 36.5698 99.0398 36.735 99.0808 36.9326H97.3372C97.3863 36.7348 97.4833 36.5703 97.6212 36.4512C97.7778 36.3159 97.9922 36.235 98.2621 36.235Z" fill="#4C249F"/>
<path d="M102.276 35.5889C101.933 35.5889 101.615 35.7134 101.377 35.9199C101.368 35.8394 101.34 35.7692 101.287 35.7163C101.221 35.6506 101.127 35.6232 101.021 35.6232C100.915 35.6232 100.823 35.6529 100.757 35.7185C100.691 35.7841 100.661 35.8759 100.661 35.9806V38.5364C100.661 38.6433 100.691 38.7357 100.757 38.801C100.824 38.8661 100.917 38.8937 101.021 38.8937C101.129 38.8937 101.222 38.8643 101.287 38.7981C101.353 38.732 101.381 38.6399 101.381 38.5364V36.8668C101.381 36.6336 101.502 36.4566 101.713 36.351C101.926 36.2438 102.232 36.2101 102.589 36.2792C102.674 36.2984 102.761 36.2971 102.836 36.2605C102.913 36.2225 102.967 36.1519 102.991 36.0551C103.008 35.988 103.001 35.9214 102.972 35.8607C102.942 35.8009 102.893 35.7509 102.829 35.7113C102.703 35.6328 102.514 35.5889 102.276 35.5889Z" fill="#4C249F"/>
</svg>
